<svg xmlns="http://www.w3.org/2000/svg" xmlns:xlink="http://www.w3.org/1999/xlink" version="1.1" width="166" height="213.763" viewBox="0 0 166 213.763">
<defs>
<clipPath id="clip_0">
<path transform="matrix(1,0,0,-1,0,213.763)" d="M0 213.763H166V0H0Z"/>
</clipPath>
</defs>
<g id="layer_1" data-name="Layer 1">
<g clip-path="url(#clip_0)">
<path transform="matrix(1,0,0,-1,110.752,48.984697)" d="M0 0 3.302 5.139 1.857 5.375 .806 4.231C.291 3.669-.855 2.099-1.183 1.416L-1.9-.063Z" fill="#455973" fill-rule="evenodd"/>
<path transform="matrix(1,0,0,-1,56.1025,49.144807)" d="M0 0-3.28 5.286-1.859 5.374-.809 4.231C-.291 3.67 .853 2.096 1.183 1.416L1.899-.063Z" fill="#455973" fill-rule="evenodd"/>
<path transform="matrix(1,0,0,-1,53.1553,43.845994)" d="M0 0C.007 .004 1.229 .11 1.356 .115 1.882 .129 3.213 .162 3.213 .162 6.708 .162 5.85-2.44 10.665-2.44H47.248C54.589-2.44 53.211 .272 57.454 .22 57.454 .22 58.567 .249 59.513 .179 60.089 .137 60.482-.02 60.868-.02L99.598 0C99.598 0 99.428-79.111 99.428-79.274 99.197-147.535 30.046-161.044 29.989-161.101 29.989-161.101-39.908-148.132-39.908-79.111-39.908-78.787-39.851-.054-39.851-.054Z" fill="#061f3b" fill-rule="evenodd"/>
<path transform="matrix(1,0,0,-1,104.5918,39.342103)" d="M0 0C-4.646-3.748-10.551-4.4-13.295-1.423-15.995 1.576-14.441 7.055-9.86 10.79-5.266 14.591 .689 15.19 3.39 12.212 6.131 9.213 4.595 3.798 0 0M-28.552-1.078C-31.084-4.177-37.037-3.848-41.854-.323-46.679 3.207-48.509 8.58-45.995 11.666-43.404 14.816-37.438 14.487-32.625 10.961-27.812 7.436-25.978 2.057-28.552-1.078M-14.095 13.239C-16.105 11.886-15.527 12.043-16.9 10.741-17.644 9.935-19.541 9.283-19.378 11.392V20.891H-13.86L-13.883 24.388-19.378 24.368V29.626H-23.38L-23.399 24.388H-28.836L-28.826 20.891H-23.38V11.34C-23.447 9.166-25.045 10.259-25.786 10.91-25.168 10.533-26.653 11.666-28.264 12.744-56.004 31.358-65.355-5.372-36.75-5.372-36.75-5.372-6.876-5.32-6.696-5.32 22.31-5.1 10.331 30.601-14.095 13.239" fill="#d8b27f" fill-rule="evenodd"/>
<path transform="matrix(1,0,0,-1,104.5918,39.342103)" stroke-width="1.8" stroke-linecap="butt" stroke-miterlimit="10" stroke-linejoin="miter" fill="none" stroke="#07203b" d="M0 0C-4.646-3.748-10.551-4.4-13.295-1.423-15.995 1.576-14.441 7.055-9.86 10.79-5.266 14.591 .689 15.19 3.39 12.212 6.131 9.213 4.595 3.798 0 0ZM-28.552-1.078C-31.084-4.177-37.037-3.848-41.854-.323-46.679 3.207-48.509 8.58-45.995 11.666-43.404 14.816-37.438 14.487-32.625 10.961-27.812 7.436-25.978 2.057-28.552-1.078ZM-14.095 13.239C-16.105 11.886-15.527 12.043-16.9 10.741-17.644 9.935-19.541 9.283-19.378 11.392V20.891H-13.86L-13.883 24.388-19.378 24.368V29.626H-23.38L-23.399 24.388H-28.836L-28.826 20.891H-23.38V11.34C-23.447 9.166-25.045 10.259-25.786 10.91-25.168 10.533-26.653 11.666-28.264 12.744-56.004 31.358-65.355-5.372-36.75-5.372-36.75-5.372-6.876-5.32-6.696-5.32 22.31-5.1 10.331 30.601-14.095 13.239Z"/>
<path transform="matrix(1,0,0,-1,85.5,51.391908)" d="M0 0C0-1.898-1.1-3.476-2.475-3.476-3.854-3.476-4.937-1.898-4.937 0-4.937 1.952-3.854 3.528-2.475 3.528-1.1 3.528 0 1.952 0 0" fill="#ffffff" fill-rule="evenodd"/>
<path transform="matrix(1,0,0,-1,94.9648,51.391908)" d="M0 0C0-1.898-1.159-3.476-2.535-3.476-3.908-3.476-5.05-1.898-5.05 0-5.05 1.952-3.908 3.528-2.535 3.528-1.159 3.528 0 1.952 0 0" fill="#ffffff" fill-rule="evenodd"/>
<path transform="matrix(1,0,0,-1,104.4297,51.283494)" d="M0 0C0-1.948-1.105-3.525-2.482-3.525-3.912-3.525-4.995-1.948-4.995 0-4.995 1.901-3.912 3.478-2.482 3.478-1.105 3.478 0 1.901 0 0" fill="#ffffff" fill-rule="evenodd"/>
<path transform="matrix(1,0,0,-1,76.335,51.391908)" d="M0 0C0-1.898-1.159-3.476-2.538-3.476-3.907-3.476-5.051-1.898-5.051 0-5.051 1.952-3.907 3.528-2.538 3.528-1.159 3.528 0 1.952 0 0" fill="#ffffff" fill-rule="evenodd"/>
<path transform="matrix(1,0,0,-1,67.5596,51.283494)" d="M0 0C0-1.948-1.16-3.525-2.537-3.525-3.907-3.525-5.051-1.948-5.051 0-5.051 1.901-3.907 3.478-2.537 3.478-1.16 3.478 0 1.901 0 0" fill="#ffffff" fill-rule="evenodd"/>
<path transform="matrix(1,0,0,-1,86.4717,56.222)" d="M0 0C0 0 .061-56.966 .168-56.966H61.184V-62.395L.061-62.296C0-62.296 .061-141.895 .061-141.895 .111-141.948-3.326-142.922-3.379-142.872-3.379-142.813-6.477-141.842-6.477-141.842V-62.395L-67.778-62.237C-67.778-62.237-67.829-56.809-67.778-56.809L-6.477-56.966V0Z" fill="#d8b27f" fill-rule="evenodd"/>
<path transform="matrix(1,0,0,-1,75.5254,121.9349)" d="M0 0C0-.05-.112-75.426-.112-75.426-.176-75.477-55.22-60.118-56.819-5.101-56.819-4.931-56.995 .104-56.995 .104Z" fill="#ffffff" fill-rule="evenodd"/>
<path transform="matrix(1,0,0,-1,108.874,49.071596)" d="M0 0C-1.77-3.759-3.006-7.255-9.158-7.255-9.158-7.255-18.163-7.199-18.163-7.255L-18.105-60.212H39.062L38.778 .127C38.778 .127 .006 .052 0 0" fill="#ffffff" fill-rule="evenodd"/>
<path transform="matrix(1,0,0,-1,129.4268,56.252305)" d="M0 0C2.252 0 4.758-1.086 5.272-3.148 5.635-4.595 6.639-5.142 7.718-5.797 8.521-6.285 9.829-6.499 10.664-6.892 13.09-8.037 15.083-11.456 14.965-12.32 14.792-13.567 14.792-15.032 14.965-16.279 15.301-18.724 12.917-20.068 11.467-22.029 11.094-22.537 10.491-22.682 10.321-23.278 10.024-24.311 10.047-25.409 9.688-26.428 8.971-28.464 7.281-30.506 4.814-30.17 3.612-30.008 2.227-30.567 1.202-29.629 .402-28.893-1.529-29.311-1.761-29.474-3.685-30.838-4.57-30.835-6.999-30.606-7.571-30.551-7.684-30.985-7.972-31.31-7.799-32.45-7.799-33.808-7.972-34.946-8.291-37.064-7.859-39.208-6.884-41.131L-6.499-41.886C-6.001-42.87-1.351-44.325-.382-45.618 .153-46.335 1.932-48.748 .569-49.07-.119-49.232-2.868-47.154-3.44-46.992-4.389-46.723-5.383-46.882-6.308-47.154-7.226-47.425-6.538-48.781-6.884-49.487-7.226-50.193-7.713-49.868-8.202-49.975-10.104-50.392-11.067-49.038-11.067-47.588-11.067-45.752-12.81-47.37-13.362-48.023-13.918-48.682-14.761-49.378-14.909-50.085-15.023-50.642-15.425-50.683-15.483-51.063-16.343-51.224-16.914-50.897-17.202-50.193V-47.696C-17.202-45.767-19.146-47.367-19.095-48.35-19.04-49.419-20.444-50.243-21.216-49.271-21.971-48.318-22.764-49.975-23.625-49.975H-25.516C-26.712-49.975-25.321-47.67-24.716-46.666-23.833-45.208-21.943-43.295-20.643-43.735-20.22-43.879-20.126-43.465-19.784-43.517-18.81-42.922-19.784-41.349-18.979-40.589-19.267-39.992-18.979-39.341-18.866-38.745-18.507-36.883-16.989-35.146-17.547-33.209-17.719-32.612-17.184-31.717-17.547-31.202-18.111-30.404-18.979-29.519-19.668-28.923-21.519-27.317-23.514-25.587-25.401-24.311-26.348-23.67-27.416-23.622-28.671-23.604-29.815-23.589-30.981-24.205-32.095-23.786-34.502-22.885-34.367-21.527-35.436-19.427-36.141-18.045-35.717-16.17-35.091-15.032-34.466-13.89-34.869-11.92-34.002-10.962-33.027-9.884-32.134-8.347-31.055-7.22-29.704-5.801-27.18-5.211-26.606-5.211-24.736-5.211-22.77-4.731-21.618-3.259L-20.643-2.01C-20.063-1.268-19.018-1.808-18.121-1.25-16.553-.275-15.159-1.42-14.239-2.242-13.143-3.227-12.935-2.233-12.157-1.901-10.138-1.041-9.448 .446-7.856 0-4.362-.986-2.622 0 0 0" fill="#a6846a" fill-rule="evenodd"/>
<path transform="matrix(1,0,0,-1,147.4727,121.9349)" d="M0 0C0-.05-.224-5.257-.163-5.324-.912-59.034-56.763-75.477-56.763-75.426L-56.712 0Z" fill="#dd362a" fill-rule="evenodd"/>
<path transform="matrix(1,0,0,-1,57.8945,49.215105)" d="M0 0C0-.002-39.371 .054-39.371 .054V-59.907L17.51-60.068C17.51-60.122 17.739-7.111 17.739-7.111L8.793-7C1.009-7.084 2.162-4.789 0 0" fill="#dd362a" fill-rule="evenodd"/>
<path transform="matrix(1,0,0,-1,101.7598,129.6351)" d="M0 0C.352-.664-.146-1.391 1.254-1.944 2.061-2.264 2.743-1.403 3.546-1.348 3.943-1.321 4.558-1.345 4.521-1.836 4.464-2.649 5.554-2.92 5.954-3.518 6.039-3.645 8.458-4.963 8.938-4.115 9.738-2.696 10.477-2.649 10.502-2.563 11.068-.551 11.636 1.685 11.802 1.691 11.973 1.696 12.518-1.028 13.039-2.511 13.088-2.649 13.779-2.696 14.371-3.628 14.669-4.1 15.425-3.018 15.987-3.192 18.479-3.97 20.687-2.455 24-1.741L25.397-1.53C28.787-1.025 29.704-2.563 27.903-3.203 26.984-3.528 25.119-4.227 24.293-4.527 22.201-5.291 21.355-5.347 19.516-5.481 19.062-5.514 17.624-6.208 17.056-6.386 15.966-6.725 15.686-6.787 15.721-6.977 15.96-8.236 15.813-9.392 15.584-10.64 15.315-12.105 14.646-14.968 13.301-16.031 12.042-17.023 10.49-16.622 9.667-14.96 8.915-13.433 7.787-10.486 7.922-7.841 7.948-7.271 7.367-7.683 6.847-7.593 4.294-7.148 4.551-8.845 3.386-8.845 2.068-8.845 1.08-8.619-.124-8.619-.864-8.619-2.537-7.757-1.1-7.262 .704-6.643-1.302-5.418-2.303-5.418-2.684-5.418-3.084-5.461-3.391-5.688-3.539-5.799-4.804-5.799-5.513-5.799-5.655-5.799-5.8-5.836-5.916-5.906-8.982-7.802-8.105-5.298-7.142-4.596-6.882-4.409-6.393-3.566-6.259-3.483-3.829-1.949-5.08-1.811-5.743-1.53-6.73-1.116-6.583-.419-7.215 .42-8.398 1.987-7.756 2.498-5.67 1.672-3.605 .857-2.997 1.179-1.474 1.046-.841 .991-.23 .437 0 0" fill="#dcad77" fill-rule="evenodd"/>
<path transform="matrix(1,0,0,-1,126.6973,138.3768)" d="M0 0C1.27 .166 3.209-.324 4.354-.943 7.525-2.656 5.212-9.322 12.143-7.455 13.396-7.119 15.166-5.701 15.08-6.564 14.948-7.885 14.094-9.813 12.9-11.072 10.981-13.088 8.04-13.564 5.276-13.564 3.807-13.564 2.719-12.492 1.278-12.34 .245-12.232-2.112-12.025-3.431-12.426-5.966-13.197-8.621-15.992-7.513-19.318-6.623-21.982-5.582-24.637-3.843-26.914-2.989-28.033-.263-29.562-1.664-30.494-1.741-30.549-2.385-31.117-2.752-31.418-5.123-33.342-8.71-34.473-11.928-35.486-14.863-36.414-17.273-38.322-19.325-40.479-19.84-41.021-20.15-41.709-20.643-42.27L-20.929-42.596C-21.273-43.408-22.134-43.627-22.937-43.734L-23.28-43.518C-23.683-43.029-23.566-42.162-23.395-41.619-22.533-38.902-21.5-36.416-20.759-33.48-19.548-28.705-17.433-25.912-17.433-21.812-17.433-20.24-17.241-18.525-18.406-17.201-19.366-16.109-20.816-15.439-23.077-16.025-23.744-16.195-25.073-16.945-26.444-17.51-27.5-17.943-28.533-19.373-30.263-22.816-30.361-23.016-30.9-24.992-31.456-23.664-32.05-22.256-32.097-21.799-32.313-20.652-33.308-15.422-33.25-10.365-29.759-6.676-26.61-3.344-20-4.885-15.998-8.682-14.048-10.531-10.82-9.662-9.043-7.629-8.28-6.754-7.345-4.885-6.192-3.744-3.975-1.545-2.615-.344 0 0" fill="#dcad77" fill-rule="evenodd"/>
<path transform="matrix(1,0,0,-1,35.7021,66.181)" d="M0 0C-.748-1.299-1.789-.446-3.202 .355-4.696 1.204-6.235 2.367-6.027 3.83-5.557 7.13-3.791 6.588-2.543 5.436-.423 3.48 .566 .979 0 0" fill="#dcad77" fill-rule="evenodd"/>
<path transform="matrix(1,0,0,-1,64.0381,135.94171)" d="M0 0C1.113-.412 1.361 2.216 1.533 3.112 1.621 3.564 3.272 6.168 3.804 5.746 4.156 5.471 3.401 4.383 3.343 3.666 3.212 2.066 4.751 .952 5.267-.477 5.967-2.408 5.522-2.718 4.94-4.486L4.474-5.558C4.254-6.064 3.583-6.949 4.006-7.706L5.207-8.527C5.875-9.101 5.475-13.138 5.033-14.939 4.767-16.035 4.854-17.279 3.539-18.318 1.686-19.777-1.065-22.167-3.536-21.095-4.403-20.72-4.471-16.927-6.339-16.927-9.203-16.927-12.366-16.953-15.282-17.117-15.973-17.156-17.423-18.38-17.484-19.011-17.753-21.728-18.352-21.539-21.957-21.16-25.566-20.781-26.095-19.833-28.509-15.986-28.874-15.408-29.4-14.96-29.699-14.337-30.171-13.357-31.569-11.748-30.232-10.673-29.967-10.46-29.282-9.759-28.697-9.539-28.29-9.097-27.578-8.853-27.634-8.757-29.565-5.433-32.36-2.044-30.085 1.402-29.794 1.843-27.531 5.368-27.964 3.599-28.265 2.369-28.165 .947-27.285 .021-26.847-.437-26.296-1.456-25.762-1.58-23.292-2.148-22.891-1.706-22.758 .566-22.674 2.006-23.995 3.963-25.695 5.495-26.674 6.377-27.757 9.574-26.429 8.4-24.611 6.792-21.348 6.408-19.875 4.494-19.408 3.887-18.726 3.432-18.417 2.672-17.484 .377-15.299-.125-14.275 1.732-13.35 3.412-12.652 4.882-13.119 7.238-13.509 9.193-13.219 9.76-13.82 11.655-14.108 12.566-11.715 10.837-10.942 9.226-10.264 7.814-9.344 5.898-9.075 4.926-7.875 .566-7.684 .751-5.48 3.656-4.11 5.461-4.087 6.09-3.982 6.767-3.937 7.036-4.087 7.916-4.694 9.944-5.008 10.993-2.814 8.987-2.371 8.32-1.837 7.51-1.287 6.793-1.05 4.907-.816 3.035-2.736 1.011 0 0" fill="#dcad77" fill-rule="evenodd"/>
<path transform="matrix(1,0,0,-1,50.2979,180.8846)" d="M0 0C-.978 1.41-.394 1.975 0 3.717 .278 4.943 .135 6.381 .1 7.719 0 11.719-2.032 14.295-2.263 18.15-2.316 19.057-2.55 20.135-2.496 21.135-2.391 23.037-2.213 26.213-.163 26.213 1.355 26.213 .915 25.996 2.606 25.996 4.298 25.996 4.374 26.197 5.889 26.197 7.938 26.197 8.117 23.023 8.224 21.121 8.277 20.121 8.043 19.043 7.989 18.141 7.76 14.281 5.727 11.705 5.625 7.703 5.594 6.367 5.449 4.93 5.727 3.703 6.121 1.963 6.888 1.523 5.727-.014 5.076-.875 3.837-1.311 2.606-1.268 1.556-1.211 .528-.762 0 0" fill="#dcad77" fill-rule="evenodd"/>
<path transform="matrix(1,0,0,-1,52.874,146.449)" d="M0 0C-11.875 .123-16.006-4.457-16.974-2.932-18.355-.752-8.614 2.32 0 2.32 3.382 2.32 6.432 2.234 8.868 1.99 12.636 1.611 14.944 .854 14.779-.551 14.657-1.57 12.776-.492 8.972 0 6.629 .305 3.279-.033 0 0" fill="#ffffff" fill-rule="evenodd"/>
<path transform="matrix(1,0,0,-1,49.3506,60.156496)" d="M0 0-.121-9.09 1.543-9.084 2.333 1.975C2.531 4.748 5.727 2.753 5.499 1.003L4.131-9.044C4.118-9.138 5.808-9.627 5.843-9.526L6.389-7.708C7.171-4.95 7.327 .221 8.482 .994 10.669 2.457 12.435 2.518 12.125 1.639 11.535-.032 8.345-8.396 7.891-10.031 7.88-10.073 10.527-10.823 11.282-11.076 14.854-12.265 12.136-13.422 11.337-14.432 10.882-15.005 10.854-15.398 9.311-13.422 8.828-12.809 7.48-12.271 7.344-12.271 7.279-12.271 6.875-13.771 6.588-14.517 5.709-16.812 4.224-21.645 4.585-21.645 5.241-21.645 6.531-20.413 6.588-21.518 6.646-22.602 7.048-24.176 6.185-24.936 5.555-25.495 6.726-27.008 7.392-27.865L15.877-39.043C16.341-39.654 13.475-40.237 12.15-40.508 7.442-41.469 2.566-41.748-2.013-43.222L-10.787-46.043C-13.157-46.805-16.415-45.834-14.799-42.462L-9.811-32.043C-9.206-30.777-8.985-29.387-8.492-28.083-8.138-27.145-8.512-26.058-8.033-25.152-7.913-24.924-8.732-24.264-9.18-23.904L-17.208-17.447C-17.666-16.798-18.24-16.146-18.756-15.548-18.583-15.439-18.641-15.33-18.641-15.169L-13.25-12.238C-12.703-11.941-11.56-11.404-11.628-11.308-12.016-10.76-12.373-10.377-12.54-10.102L-13.804-8.568C-14.431-7.78-13.264-7.738-13.014-7.295-12.658-6.66-12.3-5.723-11.67-6.66-10.857-7.861-10.561-8.979-9.93-10.064L-9.692-10.514C-9.663-10.555-6.221-9.597-4.311-9.467-3.978-9.444-2.607-9.217-2.595-9.27L-4.059 2.258C-4.176 3.253-.25 5.575 .043 3.804Z" fill="#dcad77" fill-rule="evenodd"/>
<path transform="matrix(1,0,0,-1,49.2402,72.82741)" d="M0 0V1.467C0 1.854 .51 1.715 1.085 1.666 1.627 1.618 1.829 1.432 1.825 1.41L1.611-.072 .468-10C.123-10.165-.257-9.462-.257-7.263Z" fill="#ffffff" fill-rule="evenodd"/>
<path transform="matrix(1,0,0,-1,47.3447,82.9153)" d="M0 0C.07-1.807-1.252 .068-1.514 .612L-6.22 10.302C-6.313 10.488-4.234 11.237-2.659 11.425-2.352 11.46-.458 11.705-.46 11.591Z" fill="#ffffff" fill-rule="evenodd"/>
<path transform="matrix(1,0,0,-1,54.541,71.9046)" d="M0 0-.035-.154-2.52-10.065C-2.597-10.349-3.636-10.877-3.568-10.477L-1.653 .302C-1.626 .489-1.181 .337-.937 .278-.769 .238 .042 .187 0 0" fill="#ffffff" fill-rule="evenodd"/>
<path transform="matrix(1,0,0,-1,60.8164,97.0042)" d="M0 0C1.357-1.706-2.703-3.156-3.47-1.325L-6.503 7.169C-6.855 8.012-6.193 9.113-5.588 8.351Z" fill="#ffffff" fill-rule="evenodd"/>
<path transform="matrix(1,0,0,-1,42.124,101.0335)" d="M0 0C-.498-2.181-7.647-5.54-4.709-.172L1.156 9.791C1.623 10.647 3.604 10.986 3.227 9.561Z" fill="#ffffff" fill-rule="evenodd"/>
<path transform="matrix(1,0,0,-1,48.8916,91.0091)" d="M0 0-.402-9.154C-.479-10.9-4.298-11.532-3.965-9.76L-1.835-.227C-1.639 .659 .062 1.446 0 0" fill="#ffffff" fill-rule="evenodd"/>
<path transform="matrix(1,0,0,-1,55.5391,98.844)" d="M0 0C.379-1.177-1.762-1.983-2.028-.275L-3.139 8.14C-3.2 8.535-2.697 10.598-2.058 8.614Z" fill="#ffffff" fill-rule="evenodd"/>
<path transform="matrix(1,0,0,-1,50.2178,99.9153)" d="M0 0-.115 7.389C-.027 10.131 1.224 11.141 1.469 8.662 1.749 5.801 2.1 1.442 2.1 .318 2.1-.665-.065-2.069 0 0" fill="#ffffff" fill-rule="evenodd"/>
<path transform="matrix(1,0,0,-1,42.4102,88.2142)" d="M0 0C.074-.352 .415-.577 .8-.479L11.379 2.02C11.746 2.107 11.981 2.445 11.91 2.812L11.66 4.163C11.597 4.528 11.238 4.752 10.865 4.656L.288 2.156C-.083 2.069-.333 1.716-.261 1.364Z" fill="#f9fbfc" fill-rule="evenodd"/>
<path transform="matrix(1,0,0,-1,43.9531,87.2405)" d="M0 0C.038-.219 .241-.352 .464-.303L9.077 1.733C9.311 1.784 9.445 2.003 9.407 2.212L9.378 2.381C9.335 2.601 9.129 2.722 8.894 2.671L.284 .64C.066 .584-.084 .379-.046 .157Z" fill="#ffffff" fill-rule="evenodd"/>
<path transform="matrix(1,0,0,-1,113.5576,133.4866)" d="M0 0C1.113 0 2.611-2.472 2.313-5.298 1.991-8.349 .968-11.308 0-11.101-.588-10.976-1.585-8.609-2.096-5.58-2.617-2.472-1.113 0 0 0" fill="#ffffff" fill-rule="evenodd"/>
<path transform="matrix(1,0,0,-1,115.2861,170.5565)" d="M0 0C.069-.555-.717-.883-.98-1.016-1.837-1.455-2.981-2.117-2.981-1.721-2.981-.379-2.189 2.82-1.616 4.777-1.396 5.521-1.258 6.172-.513 6.172 0 6.172 .326 5.555 .217 4.824 .02 3.488-.156 1.26 0 0" fill="#ffffff" fill-rule="evenodd"/>
<path transform="matrix(1,0,0,-1,127.0166,140.5643)" d="M0 0C.06 .01 .131 .014 .221 .014 1.142 .014 2.028-.215 2.874-.672 3.119-.805 3.43-1.467 3.811-2.656 4.271-4.094 4.758-5.141 5.27-5.797 6.322-7.135 7.352-7.309 9.247-7.309 9.49-7.309 12.082-6.879 12.339-6.855 11.177-7.783 9.334-9.574 4.953-9.16 4.783-9.145 4.409-9.029 3.823-8.762 2.794-8.295 1.923-8.023 1.213-7.947 .17-7.84-.762-7.783-1.584-7.783-2.759-7.783-3.719-7.898-4.467-8.127-6.048-8.605-7.395-9.48-8.515-10.744-9.792-12.189-10.432-13.797-10.432-15.57-10.432-16.316-10.31-17.057-10.064-17.789-8.887-21.32-7.552-24.062-6.06-26.016-5.807-26.348-5.351-26.807-4.694-27.387-4.646-27.432-4.602-27.471-4.557-27.512L-4.614-27.559C-5.695-28.477-7.226-28.988-10.044-29.975-10.821-30.246-9.581-23.02-11.004-22.393-11.657-22.104-12.831-22.227-13.441-22.434-14.854-22.91-15.701-32.338-17.178-33.539-18.298-34.451-19.48-35.637-20.758-37.186-21.728-38.359-19.039-32.729-18.806-31.803-18.513-30.646-17.989-29.104-17.236-27.174-16.024-24.074-15.416-21.561-15.414-19.631L-15.404-18.449V-18.437C-15.404-16.365-15.912-14.75-16.933-13.594-18.217-12.131-19.849-11.402-21.824-11.402-22.527-11.402-23.257-11.5-24.018-11.699-25.009-11.953-26.826-12.564-28.14-13.738-29.154-14.641-29.965-15.158-30.759-16.377-30.955-15.395-31.055-14.414-31.055-13.432-31.055-10.363-30.148-7.873-28.338-5.957-27.65-5.229-26.642-4.863-25.314-4.863-24.13-4.863-22.882-5.145-21.57-5.705-20.21-6.285-19.014-7.066-17.975-8.051-16.806-9.162-15.372-9.717-13.679-9.717-11.276-9.717-9.237-8.762-7.565-6.846-7.288-6.529-6.883-5.961-6.352-5.145-5.673-4.105-5.165-3.416-4.824-3.078-3.67-1.937-2.81-1.176-2.237-.805-1.588-.377-.842-.107 0 0" fill="#ffffff" fill-rule="evenodd"/>
<path transform="matrix(1,0,0,-1,43.9688,83.0267)" d="M0 0C.895-1.64-1.343-.758-1.895-.218L-7.742 5.533C-8.467 6.25-9.241 6.599-8.425 7.372-7.993 7.78-6.614 8.693-6.211 8.971-5.812 9.243-5.21 9.536-5.158 9.442Z" fill="#ffffff" fill-rule="evenodd"/>
<path transform="matrix(1,0,0,-1,116.8477,134.3089)" d="M0 0C.511 .826 .953 .672 2.237 .414 3.142 .23 6.841 1.311 7.749 1.629 8.915 2.034 10.018 2.502 10.686 2.352 11.692 2.127 13.244 2.195 11.212 1.538 10.38 1.269 9.23 .868 7.248 .431 6.423 .247 4.162-.007 3.693-.158 3.388-.253 2.563-.811 1.636-.993 .975-1.123 .445-1.393 .391-1.149 .243-.53-.053-.084 0 0" fill="#538888" fill-rule="evenodd"/>
<path transform="matrix(1,0,0,-1,127.6504,59.179)" d="M0 0C1.573 .264 5.567 .931 4.189-1.464 3.802-2.133 5.663-3.893 6.71-4.885 8.626-6.698 14.201-4.54 13.247-9.388 13.209-9.579 13.189-9.768 13.132-9.93 13.589-10.798 13.305-11.884 13.362-12.859 13.423-13.926 13.499-15.209 12.443-15.844 11.184-16.604 10.779-17.69 9.805-18.559 9.023-19.254 9.597-20.407 9.231-21.27 8.994-21.835 8.56-22.89 8.488-22.951 7.912-23.44 7.97-24.036 7.283-24.31 5.798-24.895 1.891-26.434 2.639-24.31 2.81-23.82 2.061-23.918 1.779-23.713-4.128-19.365 5.087-24.286 5.849-22.844 6.195-22.192 6.71-21.488 6.367-20.674 6.102-20.049 5.261-19.617 5.392-18.883 5.448-18.559 5.392-17.852 5.046-17.635 4.645-17.381 4.911-16.585 3.727-17.092 3.484-17.195 3.155-17.58 3.497-18.069 4.061-18.866 2.799-19.024 2.294-18.665 1.605-18.178 1.664-17.311 .86-16.929 .115-16.577 .115-18.17 .115-18.883 .115-21.346-9.068-20.902-3.667-18.773-2.982-18.502-3.152-17.418-2.521-17.092-1.492-16.278-2.707-14.538-1.904-13.398-1.037-12.164 .999-11.11-.007-9.803-.464-9.206-1.088-9.225-1.776-8.681-2.675-7.973-4.09-7.833-4.643-6.781-5.481-5.196-11.213-3.781-8.256-7.325-7.395-8.355-6.479-9.116-5.847-10.04-5.548-10.476-5.632-13.308-6.423-11.069-6.594-10.581-7.281-10.907-7.51-10.526-9.816-6.71-8.483-12.753-7.281-13.24-5.975-13.77-5.703-15.431-6.823-16.278-7.683-16.929-7.968-17.907-8.715-18.559-9.659-19.382-12.809-20.794-11.926-18.287-11.811-17.959-11.838-17.598-12.042-17.311-12.499-16.658-12.44-15.844-12.787-15.139-13.339-14.005-12.911-12.666-13.359-11.503-13.589-10.907-13.417-10.04-13.99-9.604-15.169-8.712-15.129-7.215-15.137-5.859-15.142-5.065-16.097-6.029-17.104-5.443-17.538-5.191-18.169-4.72-19.209-4.885-19.257-4.891-19.703-5.244-19.953-5.427-20.632-5.92-20.729-6.735-19.734-6.735-19.446-6.735-18.578-7.217-18.118-7-17.6-6.755-17.014-7.166-17.086-7.706-17.144-8.139-16.786-9.36-17.086-9.061-17.305-8.846-18.268-9.539-18.878-8.96-20.005-7.895-19.723-8.466-20.479-8.456-24.29-8.41-18.994-10.215-18.406-10.852-18.004-11.286-16.856-11.503-17.315-12.208-18.241-13.631-15.702-14.636-15.882-16.062-16.054-17.418-16.054-18.991-15.882-20.349-15.863-20.493-15.826-20.782-15.882-20.782H-18.004C-18.468-20.782-18.71-20.02-18.863-19.534-19.035-18.991-18.464-17.635-19.322-17.418-21.909-16.767-22.381-13.35-19.84-12.317-19.398-12.139-22.477-10.734-22.571-9.791-22.709-8.419-24.942-10.357-25.917-9.278-27.398-7.642-27.568-10.328-26.892-11.069-26.45-11.553-25.61-11.869-25.438-11.858-24.965-11.829-24.153-11.872-23.791-12.069-22.936-12.533-23.604-12.643-23.738-12.643-24.482-12.643-25.113-13.131-25.803-12.859-26.247-12.685-26.6-13.129-27.007-13.24-28.169-13.555-30.373-16.701-27.35-15.627-26.892-15.464-26.49-14.868-26.03-15.139-25.343-15.139-25.113-14.27-24.139-14.595-23.935-14.664-23.523-14.213-23.509-14.595L-23.395-17.311C-23.343-18.477-24.825-18.829-25.686-18.178-25.974-17.961-26.49-18.232-26.719-18.069-27.292-18.448-28.268-18.448-28.782-18.069-30.408-16.873-32.571-15.233-31.535-13.131-30.68-11.395-30.594-9.305-29.244-7.812-28.554-7.055-28.268-6.296-27.464-5.642-26.578-4.924-25.416-4.564-24.253-4.722-23.452-4.829-22.246-5.101-21.617-4.504-20.991-3.913-19.788-4.134-19.322-3.364-18.194-1.495-15.076 1.025-13.703-1.899-12.915-3.577-10.423-3.442-9.689-1.789-8.601 .661-5.47 .396-3.095 0-2.121-.163-.974-.163 0 0" fill="#538888" fill-rule="evenodd"/>
<path transform="matrix(1,0,0,-1,108.8096,135.9466)" d="M0 0C-.35 .06-.679 .089-.988 .089-2.051 .089-2.968-.319-3.74-1.139-3.777-1.178-3.81-1.21-3.835-1.237-4.221-1.227-4.73-1.192-5.357-1.129-5.67-1.098-5.953-1.073-6.211-1.051-6.105-.83-6.053-.582-6.053-.312-6.053 .453-6.506 1.096-7.411 1.619-8.069 2-8.719 2.189-9.357 2.189-9.992 2.189-10.534 2.073-10.98 1.841-11.229 1.821-11.703 1.811-12.402 1.811-12.393 1.826-12.381 1.841-12.372 1.856-11.127 2.674-10.503 3.448-10.503 4.177-10.503 4.95-11.023 5.524-12.064 5.899-12.152 5.929-12.21 5.953-12.238 5.964-12.326 6.002-12.422 6.14-12.53 6.378-12.557 6.436-12.582 6.492-12.607 6.547-11.654 6.245-10.671 6.091-9.662 6.09-9.244 6.09-8.915 6.078-8.668 6.058-8.509 6.013-8.383 5.908-8.291 5.735-8.28 5.707-8.271 5.635-8.255 5.52-8.109 4.396-7.469 3.608-6.332 3.159-6.042 3.046-5.744 2.989-5.434 2.989-4.977 2.989-4.434 3.15-3.8 3.476-3.76 3.495-3.725 3.512-3.692 3.53-3.478 3.11-3.107 2.711-2.577 2.332-2.396 2.2-2.287 2.117-2.255 2.079-2.016 1.736-1.504 1.485-.716 1.329-.617 1.31 1.386 1.228 1.229 .834 1.083 .464 1.083 .304 .937-.202 .898-.336 .048 .001 0 0" fill="#538888" fill-rule="evenodd"/>
<path transform="matrix(1,0,0,-1,61.5869,131.4261)" d="M0 0C-.019-.527-.125-.412-.294-.83-.672-1.771-.864-2.522-.864-3.087-.864-4.621-.013-5.703 1.689-6.33 2.013-6.449 2.342-6.509 2.678-6.509 3.846-6.509 4.709-5.933 5.268-4.786 5.518-5.161 5.673-5.432 5.734-5.601 5.896-6.048 5.979-6.372 5.979-6.568 5.979-6.689 5.892-6.98 5.721-7.443L5.714-7.455 5.424-8.269 4.984-9.283C4.974-9.304 4.411-11.066 3.999-10.984-4.006-9.421-10.444-9.421-17.788-10.751-18.145-10.816-23.186-12.546-23.343-12.277L-24.204-10.855-24.208-10.845C-25.66-8.488-26.386-6.81-26.386-5.814V-5.794C-26.345-5.839-26.251-5.962-26.105-6.16-25.326-7.206-24.562-7.816-23.807-7.99-22.994-8.177-22.325-8.269-21.796-8.269-19.571-8.269-18.377-6.853-18.212-4.021L-18.209-3.992-18.204-3.807V-3.778C-18.204-3.109-18.338-2.429-18.608-1.741-18.55-1.807-18.482-1.872-18.415-1.941-18.124-2.236-17.961-2.43-17.926-2.52-17.525-3.5-16.939-4.324-16.156-4.988-15.236-5.773-14.259-6.165-13.226-6.165-12.306-6.165-11.522-5.859-10.875-5.242-10.321-4.715-9.95-4.012-9.766-3.136-9.344-1.146-9.16 .948-9.196 2.837-9.201 3.094-8.56 1.893-8.434 1.104-8.364 .671-8.312 .118-8.271-.166-8.07-1.559-8.013-2.256-7.796-2.759-7.226-4.101-6.352-4.773-5.174-4.773-4.353-4.773-3.577-4.38-2.861-3.596-2.622-3.338-2.22-2.83-1.651-2.077L-.679-.407C-.263 .31-.662 1.835-.309 1.165 .078 .431 .014 .437 0 0" fill="#c16a55" fill-rule="evenodd"/>
</g>
</g>
</svg>
